<mxfile host="app.diagrams.net" agent="Mozilla/5.0 (Windows NT 10.0; Win64; x64) AppleWebKit/537.36 (KHTML, like Gecko) Chrome/135.0.0.0 Safari/537.36" version="26.2.13">
  <diagram name="Page-1" id="e7e014a7-5840-1c2e-5031-d8a46d1fe8dd">
    <mxGraphModel dx="1144" dy="464" grid="1" gridSize="10" guides="1" tooltips="1" connect="1" arrows="1" fold="1" page="1" pageScale="1" pageWidth="1169" pageHeight="826" background="none" math="0" shadow="0">
      <root>
        <mxCell id="0" />
        <mxCell id="1" parent="0" />
        <mxCell id="mUqgbTgsLCFO87-bMwwA-41" value="Status Product" style="swimlane;whiteSpace=wrap" vertex="1" parent="1">
          <mxGeometry x="280" y="128" width="785.5" height="570" as="geometry" />
        </mxCell>
        <mxCell id="mUqgbTgsLCFO87-bMwwA-42" value="" style="ellipse;shape=startState;fillColor=#000000;strokeColor=#ff0000;" vertex="1" parent="mUqgbTgsLCFO87-bMwwA-41">
          <mxGeometry x="347" y="312" width="50" height="50" as="geometry" />
        </mxCell>
        <mxCell id="mUqgbTgsLCFO87-bMwwA-43" value="ACTIVE" style="rounded=1;whiteSpace=wrap;html=1;" vertex="1" parent="mUqgbTgsLCFO87-bMwwA-41">
          <mxGeometry x="309.5" y="130" width="114.5" height="40" as="geometry" />
        </mxCell>
        <mxCell id="mUqgbTgsLCFO87-bMwwA-44" value="" style="endArrow=classic;html=1;rounded=0;exitX=0.5;exitY=0;exitDx=0;exitDy=0;" edge="1" parent="mUqgbTgsLCFO87-bMwwA-41" source="mUqgbTgsLCFO87-bMwwA-42">
          <mxGeometry width="50" height="50" relative="1" as="geometry">
            <mxPoint x="175.5" y="322" as="sourcePoint" />
            <mxPoint x="370" y="173" as="targetPoint" />
          </mxGeometry>
        </mxCell>
        <mxCell id="mUqgbTgsLCFO87-bMwwA-65" value="tạo sản&amp;nbsp;&lt;div&gt;phẩm mới&lt;/div&gt;" style="edgeLabel;html=1;align=center;verticalAlign=middle;resizable=0;points=[];" vertex="1" connectable="0" parent="mUqgbTgsLCFO87-bMwwA-44">
          <mxGeometry x="-0.3475" y="-1" relative="1" as="geometry">
            <mxPoint as="offset" />
          </mxGeometry>
        </mxCell>
        <mxCell id="mUqgbTgsLCFO87-bMwwA-45" value="INACTIVE" style="rounded=1;whiteSpace=wrap;html=1;" vertex="1" parent="mUqgbTgsLCFO87-bMwwA-41">
          <mxGeometry x="600" y="130" width="110" height="40" as="geometry" />
        </mxCell>
        <mxCell id="mUqgbTgsLCFO87-bMwwA-46" value="" style="endArrow=classic;html=1;rounded=0;entryX=0.55;entryY=-0.024;entryDx=0;entryDy=0;entryPerimeter=0;" edge="1" parent="mUqgbTgsLCFO87-bMwwA-41" target="mUqgbTgsLCFO87-bMwwA-45">
          <mxGeometry width="50" height="50" relative="1" as="geometry">
            <mxPoint x="400" y="129" as="sourcePoint" />
            <mxPoint x="579.5" y="272" as="targetPoint" />
            <Array as="points">
              <mxPoint x="400" y="62" />
              <mxPoint x="423" y="62" />
              <mxPoint x="493" y="62" />
              <mxPoint x="660" y="62" />
            </Array>
          </mxGeometry>
        </mxCell>
        <mxCell id="mUqgbTgsLCFO87-bMwwA-47" value="admin vô hiệu hóa&lt;div&gt;&amp;nbsp;/ ẩn sản phẩm&amp;nbsp;&lt;span style=&quot;background-color: light-dark(#ffffff, var(--ge-dark-color, #121212)); color: light-dark(rgb(0, 0, 0), rgb(255, 255, 255));&quot;&gt;khỏi danh sách&lt;/span&gt;&lt;/div&gt;" style="edgeLabel;html=1;align=center;verticalAlign=middle;resizable=0;points=[];" vertex="1" connectable="0" parent="mUqgbTgsLCFO87-bMwwA-46">
          <mxGeometry x="-0.1186" y="-2" relative="1" as="geometry">
            <mxPoint as="offset" />
          </mxGeometry>
        </mxCell>
        <mxCell id="mUqgbTgsLCFO87-bMwwA-66" value="" style="endArrow=classic;html=1;rounded=0;entryX=0.796;entryY=1.042;entryDx=0;entryDy=0;entryPerimeter=0;" edge="1" parent="mUqgbTgsLCFO87-bMwwA-41" target="mUqgbTgsLCFO87-bMwwA-43">
          <mxGeometry width="50" height="50" relative="1" as="geometry">
            <mxPoint x="660" y="172" as="sourcePoint" />
            <mxPoint x="663" y="212" as="targetPoint" />
            <Array as="points">
              <mxPoint x="660" y="232" />
              <mxPoint x="483" y="232" />
              <mxPoint x="400" y="232" />
            </Array>
          </mxGeometry>
        </mxCell>
        <mxCell id="mUqgbTgsLCFO87-bMwwA-67" value="admin kích hoạt lại / hiển thị sản phẩm" style="edgeLabel;html=1;align=center;verticalAlign=middle;resizable=0;points=[];" vertex="1" connectable="0" parent="mUqgbTgsLCFO87-bMwwA-66">
          <mxGeometry x="-0.02" y="-2" relative="1" as="geometry">
            <mxPoint as="offset" />
          </mxGeometry>
        </mxCell>
        <mxCell id="mUqgbTgsLCFO87-bMwwA-68" value="OUT_OF_STOCK" style="rounded=1;whiteSpace=wrap;html=1;" vertex="1" parent="mUqgbTgsLCFO87-bMwwA-41">
          <mxGeometry x="60" y="120" width="120" height="60" as="geometry" />
        </mxCell>
        <mxCell id="mUqgbTgsLCFO87-bMwwA-69" value="" style="endArrow=classic;html=1;rounded=0;entryX=0.5;entryY=1;entryDx=0;entryDy=0;" edge="1" parent="mUqgbTgsLCFO87-bMwwA-41" target="mUqgbTgsLCFO87-bMwwA-68">
          <mxGeometry width="50" height="50" relative="1" as="geometry">
            <mxPoint x="340" y="172" as="sourcePoint" />
            <mxPoint x="510" y="212" as="targetPoint" />
            <Array as="points">
              <mxPoint x="340" y="272" />
              <mxPoint x="120" y="272" />
            </Array>
          </mxGeometry>
        </mxCell>
        <mxCell id="mUqgbTgsLCFO87-bMwwA-71" value="số lượng = 0 /&lt;div&gt;&amp;nbsp;hiển thị thông báo hết hàng&lt;/div&gt;" style="edgeLabel;html=1;align=center;verticalAlign=middle;resizable=0;points=[];" vertex="1" connectable="0" parent="mUqgbTgsLCFO87-bMwwA-69">
          <mxGeometry x="0.1431" y="-1" relative="1" as="geometry">
            <mxPoint as="offset" />
          </mxGeometry>
        </mxCell>
        <mxCell id="mUqgbTgsLCFO87-bMwwA-72" value="" style="endArrow=classic;html=1;rounded=0;exitX=0.5;exitY=0;exitDx=0;exitDy=0;entryX=0.25;entryY=0;entryDx=0;entryDy=0;" edge="1" parent="mUqgbTgsLCFO87-bMwwA-41" source="mUqgbTgsLCFO87-bMwwA-68" target="mUqgbTgsLCFO87-bMwwA-43">
          <mxGeometry width="50" height="50" relative="1" as="geometry">
            <mxPoint x="420" y="162" as="sourcePoint" />
            <mxPoint x="360" y="130" as="targetPoint" />
            <Array as="points">
              <mxPoint x="120" y="62" />
              <mxPoint x="230" y="62" />
              <mxPoint x="340" y="62" />
              <mxPoint x="340" y="92" />
            </Array>
          </mxGeometry>
        </mxCell>
        <mxCell id="mUqgbTgsLCFO87-bMwwA-73" value="cập nhật số lượng &amp;gt; 0&amp;nbsp;&lt;div&gt;/ cho phép mua hàng&lt;/div&gt;" style="edgeLabel;html=1;align=center;verticalAlign=middle;resizable=0;points=[];" vertex="1" connectable="0" parent="mUqgbTgsLCFO87-bMwwA-72">
          <mxGeometry x="-0.0477" relative="1" as="geometry">
            <mxPoint as="offset" />
          </mxGeometry>
        </mxCell>
      </root>
    </mxGraphModel>
  </diagram>
</mxfile>
